<?xml version="1.0" encoding="utf-8"?>
<!-- Generator: Adobe Illustrator 28.1.0, SVG Export Plug-In . SVG Version: 6.00 Build 0)  -->
<svg version="1.1" id="Layer_1" xmlns="http://www.w3.org/2000/svg" xmlns:xlink="http://www.w3.org/1999/xlink" x="0px" y="0px"
	 viewBox="0 0 48 48" style="enable-background:new 0 0 48 48;" xml:space="preserve">
<style type="text/css">
	.st0{fill-rule:evenodd;clip-rule:evenodd;fill:#FFFFFF;}
	.st1{fill:#FFFFFF;}
</style>
<path class="st0" d="M15,8.2l18,0l0,18l-18,0L15,8.2z M28,18.1c0,2.1-1.8,3.8-4,3.8c-2.2,0-4-1.7-4-3.8c0-2.1,4-6.9,4-6.9
	S28,16.1,28,18.1z"/>
<path class="st1" d="M17,28c-0.6,0-1,0.4-1,1c0,0.6,0.4,1,1,1l4,0c0.6,0,1-0.4,1-1c0-0.6-0.4-1-1-1L17,28z"/>
<path class="st1" d="M26,29c0-0.6,0.4-1,1-1l4,0c0.6,0,1,0.4,1,1c0,0.6-0.4,1-1,1l-4,0C26.4,30,26,29.5,26,29z"/>
<path class="st1" d="M24,40.2c1.1,0,2-0.9,2-2c0-1.1-0.9-2-2-2c-1.1,0-2,0.9-2,2C22,39.3,22.9,40.2,24,40.2z"/>
<path class="st0" d="M13,35.2l5,0l0,9l12,0l0-9l5,0c1.7,0,3-1.3,3-3l0-25c0-1.7-1.3-3-3-3l-22,0c-1.7,0-3,1.3-3,3l0,25
	C10,33.9,11.3,35.2,13,35.2z M35,6.2l-22,0c-0.6,0-1,0.4-1,1l0,25c0,0.6,0.4,1,1,1l5,0l0-2l12,0l0,2l5,0c0.6,0,1-0.4,1-1l0-25
	C36,6.6,35.5,6.2,35,6.2z M28,33.2l-8,0l0,9l8,0L28,33.2z"/>
</svg>
