<?xml version="1.0" encoding="utf-8"?>
<!-- Generator: Adobe Illustrator 28.1.0, SVG Export Plug-In . SVG Version: 6.00 Build 0)  -->
<svg version="1.1" id="Layer_1" xmlns="http://www.w3.org/2000/svg" xmlns:xlink="http://www.w3.org/1999/xlink" x="0px" y="0px"
	 viewBox="0 0 48 48" style="enable-background:new 0 0 48 48;" xml:space="preserve">
<style type="text/css">
	.st0{fill-rule:evenodd;clip-rule:evenodd;fill:#FFFFFF;}
</style>
<path class="st0" d="M35.9,16.3c0.7,0.8,0.5,2.1-0.4,2.7l-4.9,3.4c-0.9,0.6-2.1,0.4-3-0.3c-0.2-0.2-0.5-0.3-0.7-0.4
	C26,21.2,25.1,21,24.1,21c-1,0-1.9,0.2-2.8,0.6c-0.3,0.1-0.5,0.3-0.7,0.4c-0.9,0.6-2.2,0.8-3,0.2l-4.8-3.6c-0.9-0.7-1.1-1.9-0.3-2.7
	c1.3-1.3,2.8-2.4,4.5-3.2c2.3-1.1,4.8-1.7,7.3-1.6s5,0.7,7.2,1.9C33.1,13.7,34.6,14.9,35.9,16.3z M34.2,17.4c-1-1.1-2.3-2.1-3.6-2.8
	c-2-1-4.1-1.6-6.3-1.6c-2.2,0-4.4,0.4-6.4,1.4c-1.4,0.7-2.6,1.6-3.7,2.6l4.6,3.5c0,0,0.1,0,0.1,0c0.2,0,0.4-0.1,0.6-0.2
	c0.3-0.2,0.6-0.4,1-0.6c1.1-0.6,2.4-0.8,3.7-0.8c0.1,0,0.1,0,0.2,0c0-0.1,0.1-0.2,0.1-0.2l2.7-3.2c0.4-0.4,1-0.5,1.4-0.1
	c0.4,0.4,0.5,1,0.1,1.4l-2.2,2.5c0.4,0.1,0.8,0.3,1.2,0.5c0.3,0.2,0.7,0.4,1,0.6c0.2,0.2,0.4,0.2,0.6,0.2c0.1,0,0.1,0,0.1,0
	L34.2,17.4z M29.5,20.7C29.5,20.7,29.5,20.7,29.5,20.7C29.4,20.7,29.5,20.7,29.5,20.7z M18.8,20.6C18.8,20.6,18.8,20.6,18.8,20.6
	C18.8,20.6,18.8,20.6,18.8,20.6z"/>
<path class="st0" d="M36.2,42c2.1,0,3.9-1.7,4-3.8l1.6-28c0.1-2.3-1.7-4.2-4-4.2H10.2c-2.3,0-4.1,1.9-4,4.2l1.6,28
	c0.1,2.1,1.9,3.8,4,3.8H36.2z M11.8,40h24.4c1.1,0,1.9-0.8,2-1.9l1.6-28C39.8,9,38.9,8,37.8,8H10.2c-1.1,0-2.1,1-2,2.1l1.6,28
	C9.8,39.2,10.7,40,11.8,40z"/>
</svg>
