<?xml version="1.0" encoding="utf-8"?>
<!-- Generator: Adobe Illustrator 28.1.0, SVG Export Plug-In . SVG Version: 6.00 Build 0)  -->
<svg version="1.1" id="Layer_1" xmlns="http://www.w3.org/2000/svg" xmlns:xlink="http://www.w3.org/1999/xlink" x="0px" y="0px"
	 viewBox="0 0 127 99" style="enable-background:new 0 0 127 99;" xml:space="preserve">
<style type="text/css">
	.st0{fill:none;stroke:#FFFFFF;stroke-width:2;}
</style>
<path id="_" class="st0" d="M55.5,67.3c-0.9-2.7-2.4-5.2-4.5-7.2c-2.4-2.4-5.4-4.2-8.6-5.3c-4.5-1.4-9.2-2.1-13.9-1.9h-7.7
	c0.7-9,4.3-17.4,10.2-24.2c5.9-6.7,14-12.5,24.3-17.5l-6-9.7c-13,5.7-24.5,14.4-33.5,25.3C6.5,37.8,1.8,48.8,1.8,59.7
	c0,11.8,2.7,21,8.1,27.6s13.1,10,23.2,10c6.2,0.1,12.2-2.3,16.7-6.6c4.7-4.4,7.1-9.5,7.1-15.3C56.8,72.7,56.4,69.9,55.5,67.3z
	 M122.9,67.3c-0.9-2.7-2.4-5.2-4.5-7.2c-2.4-2.4-5.4-4.2-8.6-5.3c-4.5-1.4-9.2-2.1-13.9-1.9h-7.7c0.7-9,4.3-17.4,10.2-24.2
	c5.9-6.7,14-12.5,24.3-17.5l-6-9.7c-13,5.7-24.5,14.4-33.5,25.3c-9.3,11.1-13.9,22.1-13.9,33.1c0,11.8,2.7,21,8.1,27.6
	s13.1,10,23.2,10c6.2,0.1,12.2-2.3,16.7-6.6c4.7-4.4,7.1-9.5,7.1-15.3C124.2,72.7,123.8,69.9,122.9,67.3z"/>
</svg>
